<?xml version="1.0" encoding="iso-8859-1"?>
<!DOCTYPE svg PUBLIC "-//W3C//DTD SVG 1.1//EN" "http://www.w3.org/Graphics/SVG/1.1/DTD/svg11.dtd">
<svg version="1.1" xmlns="http://www.w3.org/2000/svg" xmlns:xlink="http://www.w3.org/1999/xlink" width="800px" height="800px" viewBox="0 0 512 512" xml:space="preserve">
  <defs>
    <linearGradient id="textGradient" x1="0%" y1="0%" x2="100%" y2="0%">
      <stop offset="0%" style="stop-color:#8a93e6;" />
      <stop offset="100%" style="stop-color:#747dd6;" />
    </linearGradient>
  </defs>
  <g id="c2be471c56fc5b4dd571614bb3052f50">
    <path fill="url(#textGradient)" d="M425.228,100.457c0,0-0.425-2.308-1.734-3.144c-1.311-0.836-2.732-0.998-2.732-0.998l-41.082-3.057l-30.228-30.053
    c-1.147-0.874-2.471-1.385-3.817-1.66c-3.219-0.624-7.548,0.125-8.347,0.312l-15.682,4.853
    c-6.812-20.11-16.118-34.432-27.795-42.716c-8.634-6.101-18.146-8.695-28.363-7.922c-2.146-2.857-4.51-5.352-7.099-7.448
    c-11.334-9.157-25.955-10.579-43.446-4.241c-52.454,19.05-74.722,87.029-82.75,120.987L86.437,139.53
    c0,0-10.767,3.069-13.293,6.088c-2.775,3.318-3.306,12.301-3.306,12.301l-38.78,299.087L323.215,511.5l157.728-34.133
    L425.228,100.457z M263.326,84.763l-50.513,15.632c6.693-26.211,19.555-52.996,44.145-63.438
    C262.066,50.331,263.476,68.632,263.326,84.763z M220.897,20.901c10.685-3.88,18.894-3.706,25.069,0.461
    c-32.96,15.033-47.351,52.909-53.563,85.357l-40.445,12.525C160.99,86.584,181.144,35.335,220.897,20.901z"></path>
  </g>
</svg>
