<svg width="708" height="708" viewBox="0 0 708 708" fill="none" xmlns="http://www.w3.org/2000/svg">
<g clip-path="url(#clip0_156_113)">
<path d="M313 1C321.021 1 329.042 1 337.19 1.29197C337.651 1.95396 337.931 2.57226 338.326 2.65789C349.615 5.10587 358.77 11.0707 366.173 19.7637C368.452 22.4391 371.012 23.1381 374.403 23.0652C395.742 22.6062 411.199 33.5015 424.03 49.2418C433.698 61.1008 439.953 74.7799 445.036 89.0646C445.951 91.6375 447.23 92.5938 450.155 91.517C455.302 89.6227 460.56 87.9363 465.894 86.6807C469.179 85.9072 472.69 86.094 476.119 86.3275C474.776 113.026 473.414 139.247 472.053 165.468C471.036 185.052 469.971 204.634 469.022 224.221C468.307 238.993 467.839 253.777 467.088 268.547C465.804 293.773 464.287 318.987 463.056 344.214C462.222 361.325 461.837 378.458 461.02 395.569C460.18 413.167 458.962 430.748 458.085 448.344C456.96 470.914 456.003 493.492 454.99 516.068C454.58 525.209 454.295 534.357 453.816 543.495C452.24 573.543 450.589 603.588 448.996 633.636C448.546 642.106 448.253 650.586 447.79 659.056C446.902 675.316 445.945 691.572 444.608 707.893C430.326 705.304 416.465 702.579 402.575 700.019C385.619 696.895 368.618 694.015 351.673 690.835C334.907 687.688 318.21 684.173 301.44 681.05C282.57 677.536 263.637 674.367 244.761 670.885C227.503 667.701 210.299 664.225 193.045 661.017C178.012 658.223 162.918 655.749 147.895 652.903C133.054 650.091 118.296 646.84 103.45 644.055C84.7479 640.547 65.9891 637.343 47.2679 633.936C44.7021 633.469 43.6579 632.248 44.3017 629.098C45.6067 622.712 46.2191 616.178 46.9827 609.689C48.0737 600.419 48.9073 591.116 50.1007 581.86C51.6027 570.209 53.4091 558.599 54.9845 546.957C56.1248 538.531 57.043 530.076 58.1695 521.648C59.38 512.592 60.8031 503.564 61.9764 494.503C63.1321 485.578 63.9789 476.612 65.1646 467.691C66.6692 456.371 68.477 445.091 69.9688 433.769C71.1448 424.845 71.9157 415.867 73.0894 406.942C74.9622 392.701 77.1073 378.497 78.9722 364.255C80.4589 352.901 81.6109 341.504 83.0732 330.147C84.6155 318.168 86.4335 306.224 87.9756 294.246C89.4376 282.889 90.5448 271.486 92.0845 260.141C94.2561 244.14 96.7568 228.184 98.9672 212.188C100.014 204.614 103.274 199.298 111.074 196.883C133.962 189.798 156.71 182.261 179.625 175.266C183.076 174.213 184.194 172.357 184.999 169.466C187.601 160.112 189.89 150.65 192.959 141.45C201.131 116.954 210.876 93.2012 224.827 71.2348C235.388 54.6053 247.356 39.3629 262.653 26.9323C276.835 15.4075 292.825 7.3276 310.638 2.95037C311.531 2.73086 312.217 1.66942 313 1ZM332.001 433.711C330.1 411.311 323.025 392.072 299.151 382.71C303.468 380.343 306.626 378.851 309.54 376.977C341.602 356.353 356.629 326.92 353.948 288.938C352.919 274.351 346.325 262.536 333.351 254.419C317.851 244.722 300.933 244.155 284.173 247.403C265.658 250.99 247.611 256.972 229.336 261.82C223.453 263.38 220.487 266.356 219.009 272.949C211.204 307.755 202.599 342.381 194.262 377.068C187.957 403.298 181.627 429.523 175.325 455.755C168.703 483.319 162.139 510.898 155.439 538.443C154.627 541.782 155.004 543.398 158.764 544.484C178.158 550.088 198.062 551.118 217.992 550.769C227.979 550.595 238.036 548.853 247.874 546.883C275.779 541.297 297.9 526.618 313.639 502.846C327.292 482.225 333.139 459.349 332.001 433.711ZM265.929 148.55C267.028 144.529 268.131 140.509 269.225 136.488C274.715 116.303 280.15 95.9784 291.588 78.2182C298.537 67.4267 306.364 56.9505 315.254 47.739C322.105 40.6404 331.225 35.732 339.281 29.8896C339.213 29.8404 338.744 29.3184 338.162 29.1037C325.833 24.558 314.073 27.2633 302.586 32.1561C280.577 41.5311 264.543 57.836 250.993 76.991C239.001 93.9429 230.496 112.683 223.128 131.945C219.022 142.678 215.735 153.724 211.927 165.081C230.267 159.525 247.74 154.232 265.929 148.55ZM350.984 55.5163C340.907 60.4342 332.479 67.6402 325.556 76.1837C314.443 89.8994 306.729 105.633 301.267 122.422C299.54 127.73 298.109 133.135 296.368 139.096C318.852 132.175 340.273 125.549 361.725 119.022C364.396 118.209 365.263 116.793 365.041 114.06C363.94 100.48 363.381 86.8421 361.8 73.3216C360.991 66.4007 358.441 59.6832 356.654 52.7802C354.247 53.8638 352.914 54.4641 350.984 55.5163Z" fill="#878FE3"/>
<path d="M445.016 707.83C445.945 691.572 446.902 675.316 447.79 659.055C448.253 650.585 448.546 642.106 448.996 633.635C450.589 603.588 452.24 573.543 453.816 543.495C454.295 534.357 454.58 525.209 454.99 516.067C456.003 493.492 456.96 470.914 458.085 448.344C458.962 430.747 460.18 413.167 461.02 395.569C461.837 378.457 462.222 361.325 463.056 344.214C464.287 318.987 465.804 293.773 467.088 268.547C467.839 253.777 468.307 238.993 469.022 224.221C469.971 204.634 471.036 185.052 472.053 165.468C473.414 139.247 474.776 113.026 476.529 86.3721C479.525 86.7044 482.67 86.7961 484.633 88.3662C489.789 92.4913 494.532 97.1557 499.253 101.795C507.927 110.319 516.426 119.02 525.11 127.533C526.294 128.693 528.082 129.784 529.665 129.902C541.025 130.748 552.41 131.24 563.774 132.039C570.656 132.522 577.585 132.98 584.342 134.249C586.466 134.648 589.379 137.417 589.754 139.494C592.166 152.86 593.984 166.333 595.977 179.774C598.98 200.018 602.03 220.255 604.942 240.512C607.717 259.809 610.218 279.146 613.067 298.432C615.889 317.534 619.119 336.576 621.941 355.679C624.79 374.965 627.23 394.311 630.082 413.596C633.242 434.966 636.779 456.28 639.939 477.649C642.791 496.935 645.227 516.281 648.079 535.567C651.239 556.936 654.78 578.249 657.935 599.62C660.806 619.068 663.238 638.583 666.236 658.011C666.706 661.051 666.26 661.513 663.529 662.091C643.729 666.278 623.967 670.643 604.202 674.997C584.756 679.281 565.344 683.729 545.875 687.906C515.703 694.38 485.492 700.677 455.315 707.128C454.768 707.245 454.434 708.354 454 709C451.3 709 448.6 709 445.74 708.711C445.391 708.225 445.204 708.028 445.016 707.83Z" fill="#6168B1"/>
<path d="M332.001 434.189C333.139 459.349 327.292 482.225 313.639 502.846C297.9 526.618 275.779 541.297 247.874 546.883C238.036 548.853 227.979 550.595 217.992 550.769C198.062 551.118 178.158 550.088 158.764 544.484C155.004 543.398 154.627 541.782 155.439 538.443C162.139 510.898 168.703 483.319 175.325 455.755C181.627 429.523 187.957 403.298 194.262 377.068C202.599 342.381 211.204 307.755 219.009 272.949C220.487 266.356 223.453 263.38 229.336 261.82C247.611 256.972 265.658 250.99 284.173 247.403C300.933 244.155 317.851 244.722 333.351 254.419C346.325 262.536 352.919 274.351 353.948 288.938C356.629 326.92 341.602 356.353 309.54 376.977C306.626 378.851 303.468 380.343 299.151 382.71C323.025 392.072 330.1 411.311 332.001 434.189ZM262.494 485.004C265.281 481.5 268.457 478.235 270.783 474.447C277.868 462.904 279.132 450.015 277.886 436.936C276.775 425.279 270.771 416.615 258.709 414.605C250.47 413.232 241.913 413.74 233.496 413.46C227.819 413.272 225.912 416.5 224.821 421.737C221.958 435.483 218.41 449.085 215.211 462.762C212.839 472.902 210.647 483.084 208.25 493.219C207.31 497.195 208.131 499.227 212.73 499.042C218.619 498.806 224.559 499.405 230.417 498.917C242.339 497.925 253.028 493.658 262.494 485.004ZM288.387 295.752C278.477 293.686 268.948 295.527 259.461 298.374C256.27 299.331 254.584 300.837 253.769 304.314C249.384 323.023 244.65 341.651 240.099 360.322C239.538 362.627 239.348 365.022 238.856 368.215C245.69 367.394 251.74 366.924 257.695 365.901C272.733 363.317 285.281 356.521 294.139 343.677C300.04 335.123 301.934 325.365 301.838 315.364C301.753 306.611 298.629 299.014 288.387 295.752Z" fill="#FEFEFE"/>
<path d="M262.241 485.256C253.028 493.658 242.339 497.925 230.417 498.917C224.559 499.405 218.619 498.806 212.73 499.042C208.131 499.227 207.31 497.195 208.25 493.219C210.647 483.085 212.839 472.902 215.211 462.762C218.41 449.085 221.958 435.483 224.821 421.737C225.912 416.5 227.819 413.272 233.496 413.46C241.913 413.74 250.47 413.232 258.709 414.605C270.771 416.615 276.775 425.279 277.886 436.936C279.132 450.015 277.868 462.905 270.783 474.447C268.457 478.235 265.281 481.5 262.241 485.256Z" fill="#8890E3"/>
<path d="M288.779 295.868C298.629 299.014 301.753 306.611 301.838 315.364C301.934 325.365 300.04 335.123 294.139 343.678C285.281 356.521 272.733 363.317 257.695 365.901C251.74 366.924 245.69 367.394 238.856 368.216C239.348 365.023 239.538 362.627 240.099 360.322C244.65 341.651 249.384 323.024 253.769 304.314C254.584 300.837 256.27 299.331 259.461 298.374C268.948 295.527 278.477 293.686 288.779 295.868Z" fill="#8890E3"/>
</g>
<defs>
<clipPath id="clip0_156_113">
<rect width="708" height="708" fill="white"/>
</clipPath>
</defs>
</svg>
